<?xml version="1.0" standalone="no"?>
<!DOCTYPE svg PUBLIC "-//W3C//DTD SVG 20010904//EN"
 "http://www.w3.org/TR/2001/REC-SVG-20010904/DTD/svg10.dtd">
<svg version="1.0" xmlns="http://www.w3.org/2000/svg"
 width="338.000000pt" height="338.000000pt" viewBox="0 0 338.000000 338.000000"
 preserveAspectRatio="xMidYMid meet">

<g transform="translate(0.000000,338.000000) scale(0.100000,-0.100000)"
fill="#000000" stroke="none">
<path d="M2215 2673 c-112 -16 -264 -77 -374 -152 -86 -58 -198 -166 -378
-362 -85 -93 -157 -169 -160 -169 -3 0 -18 9 -33 20 -51 36 -140 70 -201 77
-76 8 -134 -14 -183 -68 -40 -45 -48 -64 -13 -31 32 30 68 36 110 18 32 -13
43 -29 92 -126 87 -173 131 -211 345 -295 110 -43 230 -110 230 -128 0 -44
-168 -231 -264 -295 -27 -17 -47 -32 -44 -32 20 0 162 56 223 88 41 22 75 36
75 33 0 -11 -69 -122 -98 -160 -70 -88 -70 -87 -1 -43 35 23 94 69 132 102 59
54 67 59 67 38 0 -13 -11 -54 -24 -93 -25 -71 -29 -106 -5 -41 7 20 16 36 21
36 4 0 4 8 1 17 -6 15 -5 16 9 3 14 -14 14 -17 -3 -42 -11 -14 -19 -29 -19
-33 0 -12 49 51 75 96 l25 44 0 -45 c-1 -25 -9 -69 -19 -97 -10 -29 -17 -53
-15 -53 7 0 64 115 84 170 17 48 24 95 28 182 5 133 -6 215 -48 338 -15 47
-31 105 -34 130 l-6 45 20 -25 c10 -14 45 -74 77 -135 40 -76 59 -104 61 -90
3 11 2 69 0 130 -4 80 -11 125 -26 164 -12 30 -20 56 -19 58 6 5 160 -123 231
-191 72 -70 76 -72 76 -55 0 5 -3 8 -8 5 -4 -2 -8 12 -9 32 -1 53 -49 164 -99
233 -24 32 -44 61 -44 63 0 12 293 -122 368 -169 l42 -26 -31 53 c-58 100
-128 182 -219 258 l-25 20 30 -6 c17 -4 61 -15 99 -25 38 -10 72 -17 74 -14 2
2 -11 8 -29 14 l-34 9 32 1 c27 1 30 4 26 24 -3 12 -12 29 -20 38 -11 13 -11
18 -2 21 43 14 -94 98 -160 98 -53 0 -66 13 -62 57 1 21 8 44 13 51 9 10 -5
12 -73 7 -47 -4 -79 -3 -72 2 13 9 13 30 0 50 -5 8 14 27 54 53 80 55 135 79
244 106 l90 23 -85 -1 c-47 -1 -98 -3 -115 -5z m175 -503 c0 -5 -2 -10 -4 -10
-3 0 -8 5 -11 10 -3 6 -1 10 4 10 6 0 11 -4 11 -10z m-868 -565 c-2 -14 -8
-25 -13 -25 -10 0 -12 21 -3 44 9 24 22 10 16 -19z"/>
<path d="M2395 2229 c-4 -6 -5 -11 -4 -12 2 -2 13 -9 24 -17 19 -14 19 -14 6
3 -17 22 -4 22 23 0 15 -13 14 -10 -3 10 -27 29 -36 33 -46 16z"/>
<path d="M777 773 c-4 -3 -7 -44 -7 -90 l0 -83 60 0 c47 0 60 3 60 15 0 11
-12 15 -45 15 l-45 0 0 75 c0 69 -6 86 -23 68z"/>
<path d="M939 751 c-60 -61 -24 -151 61 -151 85 0 121 90 61 151 -40 39 -82
39 -122 0z m103 -18 c37 -34 8 -113 -42 -113 -28 0 -60 35 -60 67 0 55 61 83
102 46z"/>
<path d="M1120 690 c0 -73 3 -90 15 -90 10 0 15 10 15 30 0 23 4 30 20 30 11
0 29 -13 42 -30 12 -16 30 -30 40 -30 17 0 17 2 -4 30 -20 27 -20 31 -6 43 26
20 30 52 10 77 -14 17 -31 23 -75 27 l-57 4 0 -91z m109 46 c21 -25 2 -46 -40
-46 -37 0 -39 2 -39 30 0 27 3 30 34 30 18 0 39 -6 45 -14z"/>
<path d="M1297 773 c-4 -3 -7 -44 -7 -90 l0 -83 65 0 c51 0 65 3 65 15 0 11
-12 15 -50 15 -43 0 -50 3 -50 20 0 17 7 20 50 20 38 0 50 4 50 15 0 11 -12
15 -51 15 -47 0 -50 2 -47 23 3 19 10 22 51 25 33 2 47 7 47 18 0 10 -14 14
-58 14 -32 0 -62 -3 -65 -7z"/>
<path d="M1467 773 c-11 -11 -8 -173 3 -173 6 0 10 27 10 60 0 33 4 60 9 60 5
0 19 -16 32 -35 l24 -36 32 38 33 38 0 -62 c0 -49 3 -63 15 -63 12 0 15 17 15
89 0 84 -1 89 -20 84 -10 -3 -31 -21 -46 -40 l-26 -34 -30 40 c-30 41 -39 47
-51 34z"/>
<path d="M1792 688 c0 -51 3 -78 5 -60 4 30 6 32 47 32 49 0 76 22 76 63 0 35
-34 57 -87 57 l-43 0 2 -92z m102 66 c22 -21 20 -61 -3 -74 -11 -5 -36 -10
-55 -10 l-36 0 0 50 0 50 39 0 c23 0 46 -7 55 -16z"/>
<path d="M1972 764 c-40 -27 -25 -56 37 -76 61 -20 74 -33 60 -60 -11 -21 -67
-25 -102 -7 -21 10 -21 10 -3 -5 30 -24 92 -21 110 6 22 31 1 60 -54 73 -54
13 -74 40 -45 61 19 15 49 15 90 0 20 -8 20 -7 1 8 -25 20 -65 20 -94 0z"/>
<path d="M2122 715 c-2 -86 13 -115 62 -115 53 0 68 25 63 106 l-3 69 -2 -71
c-2 -76 -12 -94 -51 -94 -47 0 -56 14 -62 97 l-6 78 -1 -70z"/>
<path d="M2300 765 c0 -8 3 -15 8 -15 4 0 20 -20 35 -45 16 -25 32 -45 35 -45
4 0 21 21 37 48 l30 47 6 -80 5 -80 2 93 c2 103 -3 107 -44 36 -14 -24 -30
-44 -34 -44 -4 0 -22 23 -40 50 -34 54 -40 58 -40 35z"/>
<path d="M1734 685 c0 -49 1 -71 3 -48 2 23 2 64 0 90 -2 26 -3 8 -3 -42z"/>
<path d="M2303 670 c0 -41 2 -58 4 -37 2 20 2 54 0 75 -2 20 -4 3 -4 -38z"/>
</g>
</svg>
